<svg height="512pt" viewBox="-36 0 512 512" width="512pt" xmlns="http://www.w3.org/2000/svg"><path d="m151.828125 216.257812c4.140625 0 7.5-3.359374 7.5-7.5v-12.414062c0-4.144531-3.359375-7.5-7.5-7.5-4.144531 0-7.5 3.355469-7.5 7.5v12.414062c0 4.140626 3.355469 7.5 7.5 7.5zm0 0"/><path d="m289.015625 216.257812c4.140625 0 7.5-3.359374 7.5-7.5v-12.414062c0-4.144531-3.359375-7.5-7.5-7.5-4.144531 0-7.5 3.355469-7.5 7.5v12.414062c0 4.140626 3.355469 7.5 7.5 7.5zm0 0"/><path d="m220.421875 222.882812c8.761719 0 16.992187-3.664062 22.574219-10.054687 2.726562-3.117187 2.410156-7.855469-.710938-10.582031-3.117187-2.726563-7.855468-2.40625-10.582031.710937-2.734375 3.132813-6.847656 4.925781-11.28125 4.925781s-8.546875-1.792968-11.285156-4.925781c-2.726563-3.117187-7.460938-3.4375-10.582031-.710937-3.117188 2.726562-3.4375 7.464844-.710938 10.582031 5.585938 6.390625 13.816406 10.054687 22.578125 10.054687zm0 0"/><path d="m391.855469 497h-265.125c-4.140625 0-7.5 3.359375-7.5 7.5s3.359375 7.5 7.5 7.5h265.125c23.621093 0 42.835937-19.214844 42.835937-42.835938v-81.9375c3.980469-7.660156 6.148438-16.257812 6.148438-25.152343v-21.003907c0-15.644531-12.726563-28.371093-28.367188-28.371093h-44.671875v-77.035157c3.808594-7.675781 5.894531-16.230468 5.894531-25.039062v-26.527344c0-16.667968-13.558593-30.226562-30.226562-30.226562h-87.714844v-45.898438c0-8.761718-7.125-15.890625-15.886718-15.890625h-11.945313v-10.679687c14.011719-3.574219 24.457031-16.925782 24.457031-32.808594 0-20.386719-11.230468-39.152344-28.613281-47.808594-2.105469-1.046875-4.582031-1.046875-6.6875 0-17.382813 8.65625-28.617187 27.421875-28.617187 47.808594 0 15.882812 10.445312 29.234375 24.460937 32.808594v10.679687h-11.945313c-8.761718 0-15.890624 7.128907-15.890624 15.890625v45.898438h-87.714844c-16.664063 0-30.222656 13.558594-30.222656 30.226562v26.527344c0 8.808594 2.082031 17.363281 5.890624 25.039062v77.035157h-44.667968c-15.644532 0-28.371094 12.726562-28.371094 28.371093v21.003907c0 8.890625 2.171875 17.492187 6.148438 25.152343v81.9375c0 23.621094 19.21875 42.835938 42.835937 42.835938h47.746094c4.140625 0 7.5-3.359375 7.5-7.5 0-4.144531-3.359375-7.5-7.5-7.5h-47.746094c-15.347656 0-27.835937-12.488281-27.835937-27.835938 0 0 0-62.695312 0-63.9375.039062 1.367188 7.546874 5.265626 8.726562 6.074219 18.453125 12.65625 43.253906 12.65625 61.710938 0 13.382812-9.175781 31.367187-9.175781 44.75 0 18.171874 12.460938 43.554687 12.453125 61.710937 0 13.382813-9.175781 31.363281-9.175781 44.746094 0 18.160156 12.453125 43.550781 12.457031 61.714843 0 13.382813-9.175781 31.363282-9.175781 44.746094 0 18.457032 12.65625 43.257813 12.65625 61.710938 0 2.921875-2 5.929687-3.921875 8.726562-6.097656v63.960937c0 15.347657-12.488281 27.835938-27.835937 27.835938zm-188.394531-448.40625c0-13.367188 6.546874-25.703125 16.960937-32.46875 10.410156 6.765625 16.957031 19.101562 16.957031 32.46875 0 7.359375-3.863281 13.726562-9.457031 16.796875v-11.894531c0-4.140625-3.359375-7.5-7.5-7.5-4.144531 0-7.5 3.359375-7.5 7.5v11.894531c-5.59375-3.070313-9.460937-9.4375-9.460937-16.796875zm-3.375 59.378906c0-.488281.398437-.886718.890624-.886718h38.886719c.492188 0 .890625.398437.890625.886718v45.898438h-40.667968zm-117.9375 76.125c0-8.394531 6.828124-15.226562 15.222656-15.226562h246.097656c8.394531 0 15.226562 6.832031 15.226562 15.226562v26.527344c0 7.109375-1.863281 13.984375-5.210937 20.03125-9.445313 17.066406-30.183594 25.371094-48.757813 19.199219-.085937-.027344-.167968-.046875-.25-.074219-5.515624-1.871094-10.324218-5.3125-15.777343-7.351562-.042969-.019532-.089844-.03125-.132813-.050782-12.53125-4.699218-26.585937-4.6875-39.117187.003906-.039063.015626-.082031.03125-.125.046876-7.152344 2.703124-13.617188 7.257812-21.203125 8.777343-5.84375 1.171875-11.933594.957031-17.703125-.503906-5.835938-1.480469-10.628907-4.714844-16.066407-7.109375-16.15625-7.117188-35.328124-6.070312-50.589843 2.820312-10.007813 5.828126-22.335938 7.09375-33.328125 3.464844-16.652344-5.496094-28.285156-21.742187-28.285156-39.253906zm320.5 215.117188c-13.820313 7.820312-31.230469 9.097656-44.910157-.285156-18.457031-12.65625-43.257812-12.65625-61.710937 0-13.382813 9.175781-31.367188 9.175781-44.75 0-18.457032-12.65625-43.253906-12.65625-61.710938 0-13.382812 9.175781-31.367187 9.175781-44.75 0-18.457031-12.65625-43.253906-12.65625-61.710937 0-26.605469 18.246093-68.105469-4.378907-68.105469-36.855469v-21.003907c0-7.375 5.996094-13.371093 13.371094-13.371093h265.027344c4.140624 0 7.5-3.359375 7.5-7.5s-3.359376-7.5-7.5-7.5h-205.359376v-58.25c9.6875 7.863281 21.9375 12.324219 34.417969 12.5 7.472657.105469 14.945313-1.3125 21.863281-4.140625 4.960938-2.027344 9.515626-5.175782 14.667969-6.886719 8.3125-2.75 17.316407-2.757813 25.628907-.015625 5.648437 1.863281 10.570312 5.363281 16.125 7.457031 12.582031 4.75 26.714843 4.75 39.296874.023438.023438-.007813.042969-.015625.066407-.023438 5.546875-2.105469 10.453125-5.582031 16.09375-7.449219 8.308593-2.746093 17.308593-2.746093 25.617187-.003906 5.773438 1.90625 10.808594 5.5 16.511719 7.601563 12.449219 4.585937 26.46875 4.554687 38.953125-.148438 5.597656-2.105469 10.878906-5.144531 15.519531-8.914062v58.25h-29.402343c-4.144532 0-7.5 3.359375-7.5 7.5s3.355468 7.5 7.5 7.5h89.074218c7.371094 0 13.367188 5.996093 13.367188 13.371093v21.003907c0 6.9375-1.832032 13.628906-5.152344 19.492187-.011719.019532-.027344.035156-.039062.054688-4.214844 7.324218-10.589844 13.402344-18 17.59375zm0 0"/></svg>