<svg id="Capa_1" enable-background="new 0 0 512 512" height="512" viewBox="0 0 512 512" width="512"
    xmlns="http://www.w3.org/2000/svg">
    <g>
        <path
            d="m445.178 48.313c-83.629-43.659-185.092-53.503-273.921-36.072-4.064.798-6.713 4.739-5.916 8.804.798 4.065 4.739 6.713 8.804 5.916 85.882-16.853 183.776-7.279 264.09 34.649 41.485 21.658 64.59 67.217 57.492 113.369l-36.117 234.856c-7.354 47.821-48.531 83.077-96.829 83.077h-213.562c-48.383 0-89.488-35.34-96.829-83.077l-36.118-234.856c-7.098-46.151 16.007-91.711 57.492-113.369 22.462-11.727 46.974-21.229 72.856-28.242 3.998-1.083 6.361-5.202 5.277-9.2s-5.201-6.364-9.2-5.277c-26.926 7.296-52.454 17.195-75.875 29.423-47.176 24.628-73.449 76.448-65.376 128.946l36.118 234.856c8.479 55.137 55.955 95.796 111.655 95.796h213.563c55.785 0 103.189-40.744 111.655-95.796l36.118-234.856c8.072-52.498-18.2-104.318-65.377-128.947z" />
        <path
            d="m374.183 75.593c-74.271-24.766-162.029-24.789-236.366 0-21.602 7.203-33.385 30.648-26.267 52.263l21.062 63.955c5.605 17.024 21.415 28.462 39.339 28.462h168.098c17.924 0 33.733-11.438 39.339-28.462l21.061-63.955c7.119-21.614-4.664-45.06-26.266-52.263zm-137.896 129.681 16.672-64.262c.811-3.126 5.27-3.128 6.083 0l16.672 64.263h-39.427zm149.915-82.109-21.061 63.955c-3.576 10.858-13.66 18.154-25.092 18.154h-48.839c-1.784-6.877-15.763-60.76-17.649-68.03-2.076-7.999-9.297-13.586-17.561-13.586s-15.485 5.587-17.561 13.586l-17.649 68.029h-48.839c-11.433 0-21.516-7.295-25.092-18.154l-21.062-63.956c-4.541-13.788 2.98-28.745 16.765-33.342 7.721-2.575 15.582-4.855 23.557-6.875l6.212 21.44c1.156 3.992 5.326 6.266 9.291 5.116 3.979-1.153 6.269-5.313 5.116-9.291l-5.978-20.632c21.826-4.519 44.473-7.031 67.74-7.472v23.124c0 4.142 3.358 7.5 7.5 7.5s7.5-3.358 7.5-7.5v-23.122c23.267.441 45.914 2.954 67.74 7.472l-5.978 20.632c-1.153 3.979 1.138 8.138 5.116 9.291 3.961 1.148 8.133-1.121 9.291-5.116l6.212-21.44c7.975 2.019 15.835 4.3 23.557 6.874 13.785 4.597 21.305 19.554 16.764 33.343z" />
    </g>
</svg>