<?xml version="1.0" encoding="iso-8859-1"?>
<!-- Generator: Adobe Illustrator 19.0.0, SVG Export Plug-In . SVG Version: 6.00 Build 0)  -->
<svg version="1.1" id="Capa_1" xmlns="http://www.w3.org/2000/svg" xmlns:xlink="http://www.w3.org/1999/xlink" x="0px" y="0px"
	 viewBox="0 0 512 512" style="enable-background:new 0 0 512 512;" xml:space="preserve">
<path style="fill:#ECF0F1;" d="M256,256H0V38.806C0,22.246,13.418,8.828,29.978,8.828H256V256z"/>
<path style="fill:#BDC3C7;" d="M512,256H256V8.828h226.022C498.582,8.828,512,22.246,512,38.806V256z"/>
<path style="fill:#F29C1F;" d="M482.022,503.172H256V256h256v217.194C512,489.754,498.582,503.172,482.022,503.172z"/>
<g>
	<path style="fill:#7F8C8D;" d="M123.586,203.034c-4.873,0-8.828-3.946-8.828-8.828V70.621c0-4.882,3.955-8.828,8.828-8.828
		s8.828,3.946,8.828,8.828v123.586C132.414,199.089,128.459,203.034,123.586,203.034z"/>
	<path style="fill:#7F8C8D;" d="M185.379,141.241H61.793c-4.873,0-8.828-3.946-8.828-8.828c0-4.882,3.955-8.828,8.828-8.828h123.586
		c4.873,0,8.828,3.946,8.828,8.828C194.207,137.295,190.252,141.241,185.379,141.241z"/>
</g>
<path style="fill:#BDC3C7;" d="M256,503.172H29.978C13.418,503.172,0,489.754,0,473.194V256h256V503.172z"/>
<g>
	<path style="fill:#7F8C8D;" d="M167.724,432.552c-2.26,0-4.52-0.865-6.241-2.586l-88.276-88.276c-3.452-3.452-3.452-9.031,0-12.482
		c3.443-3.452,9.039-3.452,12.482,0l88.276,88.276c3.452,3.452,3.452,9.031,0,12.482
		C172.244,431.687,169.984,432.552,167.724,432.552z"/>
	<path style="fill:#7F8C8D;" d="M79.448,432.552c-2.26,0-4.52-0.865-6.241-2.586c-3.452-3.452-3.452-9.031,0-12.482l88.276-88.276
		c3.443-3.452,9.039-3.452,12.482,0c3.452,3.452,3.452,9.031,0,12.482l-88.276,88.276C83.968,431.687,81.708,432.552,79.448,432.552
		z"/>
	<path style="fill:#7F8C8D;" d="M441.379,141.241H317.793c-4.873,0-8.828-3.946-8.828-8.828c0-4.882,3.955-8.828,8.828-8.828
		h123.586c4.873,0,8.828,3.946,8.828,8.828C450.207,137.295,446.252,141.241,441.379,141.241z"/>
</g>
<g>
	<path style="fill:#FFFFFF;" d="M441.379,361.931H317.793c-4.873,0-8.828-3.946-8.828-8.828c0-4.882,3.955-8.828,8.828-8.828
		h123.586c4.873,0,8.828,3.946,8.828,8.828C450.207,357.985,446.252,361.931,441.379,361.931z"/>
	<path style="fill:#FFFFFF;" d="M441.379,414.897H317.793c-4.873,0-8.828-3.946-8.828-8.828c0-4.882,3.955-8.828,8.828-8.828
		h123.586c4.873,0,8.828,3.946,8.828,8.828C450.207,410.951,446.252,414.897,441.379,414.897z"/>
</g>
<g>
</g>
<g>
</g>
<g>
</g>
<g>
</g>
<g>
</g>
<g>
</g>
<g>
</g>
<g>
</g>
<g>
</g>
<g>
</g>
<g>
</g>
<g>
</g>
<g>
</g>
<g>
</g>
<g>
</g>
</svg>
