<?xml version="1.0" encoding="iso-8859-1"?>
<!-- Generator: Adobe Illustrator 19.0.0, SVG Export Plug-In . SVG Version: 6.00 Build 0)  -->
<svg version="1.1" id="Capa_1" xmlns="http://www.w3.org/2000/svg" xmlns:xlink="http://www.w3.org/1999/xlink" x="0px" y="0px"
	 viewBox="0 0 512 512" style="enable-background:new 0 0 512 512;" xml:space="preserve">
<g>
	<g>
		<g>
			<path d="M445.213,62.146h-35.676V28.733C409.537,12.89,396.647,0,380.803,0h-18.806c-15.844,0-28.733,12.89-28.733,28.733v33.413
				H178.736V28.733C178.736,12.89,165.847,0,150.003,0h-18.806c-15.844,0-28.733,12.89-28.733,28.733v33.413H66.788
				c-30.861,0-55.969,25.107-55.969,55.968v139.079c0,4.143,3.358,7.5,7.5,7.5c4.143,0,7.5-3.357,7.5-7.5V186.55h380.595
				c4.143,0,7.5-3.357,7.5-7.5s-3.357-7.5-7.5-7.5H25.819v-53.436c0-22.59,18.379-40.968,40.969-40.968h35.676v33.412
				c0,15.844,12.89,28.733,28.733,28.733h18.806c15.844,0,28.733-12.89,28.733-28.733V77.146h154.527v33.412
				c0,15.844,12.89,28.733,28.733,28.733h18.806c15.844,0,28.734-12.89,28.734-28.733V77.146h35.676
				c22.59,0,40.968,18.378,40.968,40.968v53.436h-38.746c-4.143,0-7.5,3.357-7.5,7.5s3.357,7.5,7.5,7.5h38.746v270.929
				c0,21.792-17.729,39.521-39.52,39.521H65.34c-21.792,0-39.521-17.728-39.521-39.521V294.6c0-4.143-3.357-7.5-7.5-7.5
				c-4.142,0-7.5,3.357-7.5,7.5v162.88c0,30.062,24.458,54.52,54.521,54.52h381.321c30.063,0,54.52-24.458,54.52-54.521V118.114
				C501.181,87.254,476.073,62.146,445.213,62.146z M163.736,110.559c0,7.572-6.161,13.733-13.733,13.733h-18.806
				c-7.572,0-13.733-6.161-13.733-13.733V28.733c0-7.572,6.161-13.733,13.733-13.733h18.806c7.572,0,13.733,6.161,13.733,13.733
				V110.559z M394.537,110.559c0,7.572-6.161,13.733-13.734,13.733h-18.806c-7.572,0-13.733-6.161-13.733-13.733V28.733
				c0-7.572,6.161-13.733,13.733-13.733h18.806c7.573,0,13.734,6.161,13.734,13.733V110.559z"/>
			<path d="M189.678,300.909L189.678,300.909h-51.002c-9.513,0-17.251,7.739-17.251,17.251v28.215
				c0,6.503,3.193,12.481,8.542,15.991c0.315,0.207,0.635,0.403,0.958,0.594v62.895c0,13.548,11.022,24.57,24.57,24.57h149.533
				c4.143,0,7.5-3.357,7.5-7.5s-3.357-7.5-7.5-7.5H155.495c-5.277,0-9.57-4.293-9.57-9.57V410.46h220.15v15.395
				c0,5.277-4.293,9.57-9.57,9.57h-20.018c-4.143,0-7.5,3.357-7.5,7.5s3.357,7.5,7.5,7.5h20.018c13.548,0,24.57-11.022,24.57-24.57
				v-62.894c0.323-0.19,0.643-0.387,0.958-0.594c5.349-3.511,8.542-9.489,8.542-15.992V318.16c0-9.512-7.738-17.251-17.25-17.251
				h-51.018v-30.476c0-2.44-0.62-4.738-1.709-6.746c0.099-0.094,0.202-0.183,0.3-0.279c4.939-4.817,7.658-11.27,7.658-18.168
				c0-8.712-4.563-27.04-16.805-39.134c-3.304-3.264-7.997-4.682-12.572-3.778c-4.58,0.9-8.407,4-10.235,8.289
				c-0.888,2.082-1.735,4.036-2.534,5.882c-4.516,10.422-7.778,17.951-8.477,25.693c-0.657,7.286,1.739,14.578,6.577,20.006
				c0.43,0.482,0.879,0.939,1.336,1.382c-1.126,2.033-1.772,4.368-1.772,6.852v30.476H227.91v-30.476
				c0-2.436-0.618-4.73-1.704-6.736c0.103-0.097,0.209-0.19,0.311-0.289c4.938-4.817,7.658-11.27,7.658-18.168
				c0-8.712-4.563-27.04-16.805-39.134c-3.304-3.264-7.998-4.682-12.572-3.778c-4.58,0.9-8.407,4-10.235,8.289
				c-0.888,2.082-1.735,4.036-2.534,5.882c-4.516,10.422-7.778,17.951-8.477,25.693c-0.657,7.287,1.741,14.58,6.578,20.007
				c0.426,0.478,0.872,0.931,1.326,1.371c-1.13,2.036-1.778,4.374-1.778,6.862V300.909z M366.075,395.46h-220.15v-29.387
				c0.898-0.108,1.793-0.262,2.681-0.473c6.395-1.519,11.741-5.515,15.054-11.252c2.294-3.973,6.096-4.402,7.624-4.402
				c1.528,0,5.33,0.43,7.624,4.402c4.303,7.453,12.009,11.902,20.614,11.902c8.606,0,16.313-4.449,20.615-11.902
				c2.294-3.973,6.096-4.402,7.625-4.402c1.527,0,5.33,0.43,7.624,4.402c4.303,7.453,12.009,11.902,20.615,11.902
				c8.605,0,16.311-4.449,20.614-11.902c2.294-3.973,6.096-4.401,7.623-4.402c1.528,0,5.331,0.43,7.625,4.402
				c4.303,7.453,12.009,11.902,20.615,11.902c8.606,0,16.312-4.449,20.614-11.902c2.294-3.973,6.097-4.402,7.625-4.402
				c1.527,0,5.33,0.43,7.624,4.402c3.311,5.737,8.657,9.733,15.052,11.252c0.888,0.211,1.783,0.365,2.682,0.473V395.46z
				 M292.873,243.541c0.482-5.34,3.194-11.601,7.3-21.077c0.643-1.484,1.316-3.038,2.017-4.67
				c7.424,8.062,11.367,20.909,11.367,27.447c0,2.821-1.112,5.461-3.133,7.432c-2.02,1.97-4.713,3.048-7.516,2.946
				c-2.749-0.068-5.306-1.275-7.199-3.4C293.62,249.876,292.587,246.713,292.873,243.541z M307.308,271.241v29.668h-8.232v-29.668
				H307.308z M198.491,243.541c0.482-5.34,3.194-11.601,7.3-21.077c0.644-1.484,1.316-3.038,2.017-4.67
				c7.424,8.062,11.367,20.909,11.367,27.447c0,2.821-1.112,5.461-3.133,7.432c-2.02,1.97-4.73,3.048-7.516,2.946
				c-2.749-0.068-5.305-1.275-7.198-3.399C199.239,249.876,198.205,246.713,198.491,243.541z M212.91,271.241v29.668h-8.232v-29.668
				H212.91z M373.325,315.909c1.24,0,2.25,1.01,2.25,2.251v28.215c0,1.411-0.679,2.734-1.772,3.452
				c-0.722,0.474-1.513,0.829-2.339,1.068c-0.057,0.017-0.115,0.032-0.172,0.05c-1.424,0.382-2.951,0.413-4.433,0.061
				c-1.653-0.393-3.954-1.433-5.527-4.158c-4.303-7.452-12.009-11.902-20.614-11.902c-8.607,0-16.313,4.45-20.615,11.902
				c-2.294,3.974-6.097,4.402-7.624,4.402c-1.528,0-5.331-0.429-7.625-4.402c-4.303-7.452-12.009-11.902-20.615-11.902
				c-8.605,0-16.312,4.45-20.614,11.903c-2.294,3.973-6.096,4.401-7.623,4.401c-1.528,0-5.331-0.429-7.625-4.402
				c-4.303-7.452-12.009-11.902-20.614-11.902c-8.606,0-16.313,4.45-20.615,11.902c-2.294,3.974-6.097,4.402-7.625,4.402
				c-1.527,0-5.33-0.429-7.624-4.402c-4.303-7.452-12.009-11.902-20.614-11.902s-16.312,4.45-20.614,11.902
				c-1.573,2.726-3.875,3.766-5.529,4.158c-1.481,0.351-3.01,0.32-4.437-0.063c-0.051-0.017-0.104-0.03-0.156-0.045
				c-0.83-0.239-1.624-0.595-2.35-1.072c-1.094-0.717-1.772-2.04-1.772-3.451V318.16c0-1.241,1.01-2.251,2.251-2.251H373.325z"/>
		</g>
	</g>
</g>
<g>
</g>
<g>
</g>
<g>
</g>
<g>
</g>
<g>
</g>
<g>
</g>
<g>
</g>
<g>
</g>
<g>
</g>
<g>
</g>
<g>
</g>
<g>
</g>
<g>
</g>
<g>
</g>
<g>
</g>
</svg>
