<svg height="511pt" viewBox="1 0 511.99929 511" width="511pt" xmlns="http://www.w3.org/2000/svg"><path d="m248.140625 95.871094s-183.488281 183.488281-183.636719 183.636718c-2.894531 2.894532-2.894531 7.714844 0 10.605469 0 0 157.699219 157.699219 157.789063 157.792969 2.796875 2.792969 7.675781 2.933594 10.609375 0 0 0 183.363281-183.367188 183.632812-183.636719 2.898438-2.894531 2.894532-7.714843 0-10.609375l-157.789062-157.789062c-2.925782-2.929688-7.675782-2.929688-10.605469 0zm-20.542969 336.121094-147.183594-147.183594 173.03125-173.027344 147.183594 147.183594zm0 0"/><path d="m310.648438 101.953125 9.992187-9.992187c2.929687-2.929688 2.929687-7.679688 0-10.605469-2.929687-2.929688-7.675781-2.929688-10.605469 0l-9.992187 9.992187c-2.929688 2.925782-2.929688 7.675782 0 10.605469 1.464843 1.464844 3.382812 2.195313 5.304687 2.195313 1.917969 0 3.839844-.730469 5.300782-2.195313zm0 0"/><path d="m421.0625 212.367188 9.992188-9.992188c2.929687-2.929688 2.929687-7.679688 0-10.609375-2.929688-2.925781-7.675782-2.925781-10.605469 0l-9.992188 9.992187c-2.929687 2.929688-2.929687 7.679688 0 10.609376 1.464844 1.464843 3.382813 2.195312 5.304688 2.195312 1.917969 0 3.839843-.734375 5.300781-2.195312zm0 0"/><path d="m348.125 130.050781c-4.136719-.28125-7.707031 2.847657-7.984375 6.980469-.628906 9.339844 2.933594 18.617188 9.777344 25.460938 6.324219 6.324218 14.730469 9.847656 23.347656 9.847656.703125 0 1.40625-.023438 2.113281-.070313 4.132813-.277343 7.257813-3.855469 6.976563-7.984375-.273438-4.136718-3.855469-7.261718-7.984375-6.980468-5.019532.335937-10.066406-1.640626-13.847656-5.417969-3.78125-3.78125-5.753907-8.828125-5.417969-13.851563.277343-4.132812-2.847657-7.707031-6.980469-7.984375zm0 0"/><path d="m165.902344 289.722656c-5.246094 5.304688.582031 16.855469 8.1875 13.816406l138.871094-46.804687c5.984374-1.996094 6.15625-9.957031 2.175781-13.9375-1.917969-1.917969-4.605469-2.8125-7.289063-1.917969 0 0-139.023437 47.105469-139.253906 47.183594-1.085938.367188-1.980469.945312-2.691406 1.660156zm0 0"/><path d="m239.050781 294.585938-18.542969 18.539062c-12.148437 12.148438-8.566406 24.425781 1.792969 34.785156 10.226563 10.230469 22.503907 13.808594 34.652344 1.660156l18.542969-18.539062c12.019531-12.023438 8.566406-24.425781-1.664063-34.65625-10.359375-10.359375-22.761719-13.808594-34.78125-1.789062zm25.574219 25.574218-18.542969 18.542969c-4.730469 4.730469-9.714843 4.089844-14.191406-.382813-4.476563-4.476562-4.988281-9.335937-.257813-14.070312l18.542969-18.539062c4.730469-4.734376 9.589844-4.222657 14.066407.253906 4.476562 4.476562 5.113281 9.464844.382812 14.195312zm0 0"/><path d="m223.707031 194.585938-18.542969 18.542968c-12.023437 12.023438-8.566406 24.425782 1.789063 34.78125 10.230469 10.230469 22.632813 13.683594 34.65625 1.664063l18.539063-18.542969c12.023437-12.019531 8.570312-24.425781-1.660157-34.652344-10.359375-10.359375-22.761719-13.8125-34.78125-1.792968zm25.191407 11.382812c4.472656 4.476562 5.113281 9.460938.382812 14.195312l-18.542969 18.539063c-4.730469 4.734375-9.71875 4.09375-14.191406-.382813-4.476563-4.476562-4.988281-9.335937-.257813-14.066406l18.542969-18.542968c4.730469-4.730469 9.589844-4.21875 14.066407.257812zm0 0"/><path d="m198.757812 500.480469c15.695313 15.699219 42.015626 15.667969 57.683594 0l174.828125-174.828125c2.929688-2.929688 2.929688-7.675782 0-10.605469-2.929687-2.929687-7.679687-2.929687-10.609375 0 0 0-174.589844 174.589844-174.828125 174.828125-9.921875 9.921875-26.566406 9.902344-36.46875 0l-186.828125-186.828125c-10.054687-10.054687-10.054687-26.417969 0-36.472656l38.78125-38.785157c2.929688-2.925781 2.929688-7.675781 0-10.605468-2.925781-2.929688-7.675781-2.929688-10.605468 0l-38.785157 38.785156c-15.902343 15.902344-15.902343 41.78125 0 57.683594 0 0 186.675781 186.675781 186.832031 186.828125zm0 0"/><path d="m504.171875 8.238281c-10.324219-10.320312-27.546875-10.3125-37.859375 0l-26.722656 26.722657-169.867188-15.910157c-12.136718-1.136719-24.03125 3.152344-32.648437 11.769531l-165.148438 165.148438c-2.929687 2.929688-2.929687 7.679688 0 10.609375 2.929688 2.925781 7.675781 2.925781 10.605469 0l165.152344-165.152344c5.445312-5.445312 12.96875-8.15625 20.640625-7.441406l157.488281 14.75-16.015625 16.015625c-9.554687.222656-18.507813 4.03125-25.285156 10.808594-6.988281 6.992187-10.835938 16.285156-10.835938 26.167968 0 9.886719 3.847657 19.179688 10.835938 26.167969 6.992187 6.992188 16.28125 10.839844 26.167969 10.839844 9.886718 0 19.179687-3.847656 26.167968-10.839844 6.757813-6.753906 10.589844-15.816406 10.8125-25.289062l16.011719-16.011719 14.75 157.492188c.71875 7.667968-1.992187 15.191406-7.4375 20.636718l-29.105469 29.105469c-2.929687 2.929687-2.929687 7.679687 0 10.609375 2.800782 2.800781 7.652344 2.953125 10.605469 0l29.105469-29.105469c8.617187-8.617187 12.90625-20.515625 11.769531-32.648437l-15.910156-169.867188 26.722656-26.71875c10.4375-10.4375 10.4375-27.421875 0-37.859375zm-77.929687 109.050781c-8.480469 8.488282-22.648438 8.472657-31.121094 0-8.484375-8.484374-8.476563-22.644531 0-31.121093.417968-.417969.847656-.8125 1.289062-1.191407-.011718.0625-.011718.125-.023437.191407-1.398438 8.507812 1.359375 17.285156 7.464843 23.390625 6.082032 6.082031 14.925782 8.859375 23.390626 7.464844.0625-.011719.128906-.015626.191406-.023438-.378906.441406-.777344.871094-1.191406 1.289062zm67.320312-81.800781-62.460938 62.460938c-4.507812 4.511719-12.125 4.515625-16.640624 0-4.515626-4.511719-4.511719-12.136719 0-16.644531 0 0 62.421874-62.421876 62.460937-62.460938 4.535156-4.539062 12.113281-4.527344 16.644531 0 4.585938 4.589844 4.585938 12.054688-.003906 16.644531zm0 0"/></svg>