<svg height="511pt" viewBox="-5 0 511 511.99965" width="511pt" xmlns="http://www.w3.org/2000/svg">
    <path
        d="m187.402344 446.945312c1.914062 0 3.832031-.726562 5.292968-2.1875 41.949219-41.808593 72.890626-95.289062 102.816407-147.007812 32.410156-56.015625 65.925781-113.9375 113.085937-155.824219 3.09375-2.75 3.375-7.492187.625-10.589843-2.75-3.097657-7.492187-3.378907-10.589844-.625-48.96875 43.496093-83.097656 102.480468-116.105468 159.523437-29.4375 50.878906-59.875 103.484375-100.421875 143.898437-2.933594 2.925782-2.941407 7.671876-.015625 10.609376 1.464844 1.46875 3.386718 2.203124 5.3125 2.203124zm0 0" />
    <path
        d="m501.300781 80.160156c1.261719-5.71875-.457031-11.605468-4.601562-15.75l-56.441407-56.445312c-7.371093-7.367188-18.429687-9.894532-28.171874-6.4375-59.050782 20.949218-109.917969 63.28125-143.601563 115.878906-9.453125 14.757812-19.816406 28.898438-29.773437 43.3125-11.808594 17.089844-21.734376 35.589844-32.132813 53.5625-24.300781 42.007812-49.429687 85.449219-80.082031 121.753906-31.128906 36.867188-69.3125 66.730469-114.878906 83.445313-11.523438 4.226562-14.917969 19.441406-6.226563 28.132812 0 0 56.433594 56.433594 56.445313 56.445313 7.269531 7.269531 18.46875 9.882812 28.171874 6.4375 29.238282-10.371094 55.351563-25.117188 79.84375-45.078125 3.210938-2.617188 3.691407-7.339844 1.074219-10.554688-2.617187-3.207031-7.34375-3.691406-10.554687-1.074219-23.132813 18.855469-47.789063 32.78125-75.382813 42.570313-4.320312 1.53125-9.246093.390625-12.546875-2.910156 0 0-56.417968-56.417969-56.441406-56.441407-1.058594-1.058593-.652344-2.917968.78125-3.441406 6.035156-2.214844 11.886719-4.617187 17.578125-7.179687l14.140625 14.144531c2.898438 2.898438 7.710938 2.894531 10.609375 0 2.929687-2.929688 2.929687-7.679688 0-10.609375l-10.480469-10.480469c6.332032-3.324218 12.441406-6.878906 18.355469-10.621094l12.679687 12.675782c2.894532 2.898437 7.703126 2.902344 10.605469 0 2.929688-2.929688 2.929688-7.679688 0-10.609375l-10.609375-10.605469c5.632813-4.03125 11.078125-8.246094 16.347656-12.632812l12.183594 12.1875c2.902344 2.898437 7.714844 2.890624 10.609375 0 2.929688-2.929688 2.929688-7.679688 0-10.609376l-11.484375-11.484374c5.035156-4.628907 9.910156-9.414063 14.636719-14.339844 0 0 12.125 12.125 12.125 12.125 2.804687 2.804687 7.660156 2.945312 10.609375 0 2.929688-2.929688 2.929688-7.675782 0-10.605469l-12.566406-12.566406c4.539062-5.132813 8.9375-10.390625 13.222656-15.753907l12.28125 12.277344c2.898438 2.898438 7.714844 2.894532 10.609375 0 2.925781-2.925781 2.925781-7.675781 0-10.605468l-13.640625-13.640626c4.136719-5.53125 8.167969-11.160156 12.113281-16.863281 0 0 12.617188 12.613281 12.632813 12.632813 2.792968 2.792968 7.667968 2.945312 10.609375 0 2.929687-2.929688 2.929687-7.675782 0-10.605469l-14.699219-14.699219c3.839844-5.835937 7.605469-11.730468 11.308594-17.671875l13.199218 13.199219c2.894532 2.898438 7.707032 2.902344 10.605469 0 2.929688-2.929688 2.929688-7.679688 0-10.605469l-15.738281-15.746093c3.644531-6.035157 7.242188-12.097657 10.808594-18.167969 0 0 11.316406 11.316406 11.316406 11.316406 2.808594 2.804687 7.660156 2.949219 10.609375 0 2.929687-2.929687 2.929687-7.679687 0-10.605469l-14.113281-14.113281c2.113281-3.640625 4.214844-7.277344 6.316406-10.910156 1.433594-2.476563 2.871094-4.957031 4.308594-7.445313 0 0 10.472656 10.472656 10.472656 10.476563 2.800781 2.796875 7.664062 2.941406 10.609375 0 2.929687-2.929688 2.929687-7.679688 0-10.609375l-13.277344-13.277344c3.554688-6.074219 7.140625-12.152344 10.773438-18.207031 0 0 10.703125 10.707031 10.710937 10.710937 2.898438 2.902344 7.710938 2.898438 10.605469 0 2.929687-2.925781 2.929687-7.675781 0-10.605468l-13.285156-13.285157c3.6875-5.964843 7.425781-11.886719 11.242187-17.738281 0 0 11.28125 11.285156 11.289063 11.289062 2.804687 2.804688 7.660156 2.949219 10.609375 0 2.929687-2.929687 2.929687-7.675781 0-10.605468l-13.40625-13.40625c3.925781-5.742188 7.929687-11.398438 12.03125-16.945313l10.84375 10.839844c2.820312 2.824219 7.671875 2.9375 10.605468 0 2.929688-2.925781 2.929688-7.675781 0-10.605469l-12.253906-12.253906c2.957032-3.742188 5.949219-7.4375 9.015625-11.042969 1.375-1.617187 2.757813-3.207031 4.140625-4.78125 0 0 11.605469 11.601563 11.609375 11.605469 2.820313 2.820312 7.671875 2.941406 10.605469 0 2.929688-2.925781 2.929688-7.675781 0-10.605469l-12.070312-12.070312c4.816406-5.039063 9.691406-9.820313 14.628906-14.351563 0 0 13.179687 13.183594 13.207031 13.207032 2.875 2.878906 7.738281 2.867187 10.605469 0 2.929687-2.925782 2.929687-7.675782 0-10.605469l-12.476563-12.480469c5.390625-4.445312 10.871094-8.613281 16.457031-12.523438 0 0 15.289063 15.292969 15.296876 15.300782 2.816406 2.8125 7.683593 2.921875 10.605468 0 2.929688-2.929688 2.929688-7.679688 0-10.609375l-13.09375-13.097657c6.078125-3.722656 12.289063-7.164062 18.648438-10.332031 0 0 17.816406 17.816407 17.816406 17.816407 2.820312 2.820312 7.675781 2.929687 10.605469 0 2.929687-2.929688 2.929687-7.679688 0-10.605469l-13.875-13.878907c4.5625-1.921874 9.203125-3.726562 13.933593-5.40625 4.324219-1.53125 9.246094-.390624 12.546876 2.910157l56.445312 56.445312c1.078125 1.078125.628906 2.921875-.78125 3.441407-22.128906 8.113281-43.121094 19.179687-62.398438 32.878906-3.375 2.402344-4.167968 7.085937-1.769531 10.460937 2.402344 3.375 7.085938 4.167969 10.460938 1.765625 18.445312-13.109375 37.703125-23.257812 58.871093-31.023437 5.515626-2.023438 9.5625-6.652344 10.824219-12.382813zm0 0" />
</svg>