<svg height="512pt" viewBox="0 0 512 512" width="512pt" xmlns="http://www.w3.org/2000/svg"><path d="m510.160156 225.316406c-.226562-1.585937-.984375-3.105468-2.121094-4.246094 0 0-217.070312-217.070312-217.109374-217.109374-1.167969-1.167969-2.777344-1.949219-4.417969-2.144532-10.152344-1.207031-20.417969-1.816406-30.511719-1.816406-60.914062 0-119.9375 21.769531-166.203125 61.300781-3.148437 2.691407-3.519531 7.425781-.828125 10.574219 2.6875 3.148438 7.421875 3.523438 10.570312.832031 43.554688-37.214843 99.117188-57.707031 156.460938-57.707031 6.449219 0 12.972656.265625 19.488281.789062-.121093.398438-.234375.792969-.355469 1.1875-3.554687 11.785157-5.875 23.953126-6.882812 36.222657-.058594.726562-.117188 1.453125-.167969 2.179687-4.039062-.242187-8.078125-.378906-12.082031-.378906-110.832031 0-201 90.167969-201 201s90.167969 201 201 201c43.628906 0 85.15625-13.804688 120.097656-39.914062 3.316406-2.480469 3.996094-7.183594 1.515625-10.5-2.476562-3.316407-7.179687-3.996094-10.496093-1.515626-32.328126 24.160157-70.75 36.929688-111.117188 36.929688-102.5625 0-186-83.4375-186-186s83.4375-186 186-186c3.859375 0 7.757812.121094 11.648438.363281.277343 20.753907 4.253906 41.507813 11.714843 60.875 2.445313 6.339844 5.25 12.542969 8.417969 18.558594l-93.0625 188.449219c-.5625 1.402344-1.121094 3.085937-1.121094 4.769531 0 5.890625 5.328125 12.339844 13.183594 12.339844 4.765625 0 9.253906-2.242188 10.9375-6.167969l86.296875-174.035156c1.867187 2.425781 3.789063 4.808594 5.773437 7.136718 10.308594 12.082032 22.316407 22.855469 35.464844 31.773438 23.871094 16.1875 51.777344 26.394531 80.472656 29.351562 5.296876.546876 10.585938.867188 15.910157.9375.242187 3.890626.363281 7.789063.363281 11.648438 0 48.832031-18.871094 95.007812-53.132812 130.015625-2.898438 2.960937-2.847657 7.710937.113281 10.605469 2.960937 2.898437 7.707031 2.847656 10.605469-.113282 37.023437-37.828124 57.414062-87.730468 57.414062-140.507812 0-4.003906-.136719-8.046875-.378906-12.082031.738281-.050781 1.476562-.109375 2.210937-.171875 12.496094-1.042969 25.253907-3.476563 37.378907-7.234375.523437 6.515625.789062 13.042969.789062 19.488281 0 64.371094-25.066406 124.894531-70.585938 170.414062-45.519531 45.519532-106.042968 70.585938-170.414062 70.585938-64.375 0-124.894531-25.066406-170.414062-70.585938-45.519532-45.519531-70.585938-106.039062-70.585938-170.414062 0-60.59375 22.582031-118.515625 63.589844-163.097656 2.804687-3.046875 2.605468-7.792969-.441406-10.597656-3.050782-2.804688-7.792969-2.605469-10.597657.441406-43.5625 47.359375-67.550781 108.886718-67.550781 173.253906 0 68.378906 26.628906 132.667969 74.980469 181.019531 48.351562 48.351563 112.640625 74.980469 181.019531 74.980469s132.667969-26.628906 181.019531-74.980469c48.351563-48.351562 74.980469-112.640625 74.980469-181.019531 0-10.089844-.613281-20.355469-1.816406-30.511719-.007813-.054687-.015625-.113281-.023438-.171875zm-21.960937-2.082031c-14.347657 4.089844-29.28125 6.132813-44.199219 6.132813-88.976562 0-161.367188-72.390626-161.367188-161.367188 0-.03125 0-.0625 0-.09375.007813-14.886719 2.054688-29.789062 6.136719-44.109375.054688-.203125.113281-.40625.171875-.609375l199.871094 199.871094c-.203125.058594-.410156.117187-.613281.175781zm0 0"/><path d="m232.582031 215.960938v-40.667969c0-26.363281-17.390625-36.179688-39.828125-36.179688-22.71875 0-40.105468 9.816407-40.105468 36.179688v40.667969c0 26.363281 17.386718 36.179687 40.105468 36.179687 22.4375 0 39.828125-9.816406 39.828125-36.179687zm-23.839843 0c0 10.378906-6.171876 15.144531-15.988282 15.144531s-15.707031-4.765625-15.707031-15.144531v-40.667969c0-10.378907 5.890625-15.144531 15.707031-15.144531s15.988282 4.765624 15.988282 15.144531zm0 0"/><path d="m319.246094 231.949219c-22.714844 0-40.105469 9.816406-40.105469 36.179687v40.667969c0 26.644531 17.390625 36.183594 40.105469 36.183594 22.441406 0 39.828125-9.539063 39.828125-36.183594v-40.667969c0-26.363281-17.390625-36.179687-39.828125-36.179687zm15.988281 76.847656c0 10.378906-6.171875 15.144531-15.988281 15.144531-9.8125 0-15.703125-4.765625-15.703125-15.144531v-40.667969c0-10.378906 5.890625-15.144531 15.703125-15.144531 9.816406 0 15.988281 4.765625 15.988281 15.144531zm0 0"/></svg>