<svg height="512pt" viewBox="0 -114 512 512" width="512pt" xmlns="http://www.w3.org/2000/svg"><path d="m184.214844 72.964844c4.144531 0 7.5-3.355469 7.5-7.5v-12.992188c0-4.140625-3.355469-7.5-7.5-7.5-4.140625 0-7.5 3.359375-7.5 7.5v12.992188c0 4.144531 3.359375 7.5 7.5 7.5zm0 0"/><path d="m327.785156 72.964844c4.140625 0 7.5-3.355469 7.5-7.5v-12.992188c0-4.140625-3.359375-7.5-7.5-7.5-4.144531 0-7.5 3.359375-7.5 7.5v12.992188c0 4.144531 3.355469 7.5 7.5 7.5zm0 0"/><path d="m256 79.898438c9.070312 0 17.585938-3.789063 23.363281-10.402344 2.726563-3.117188 2.410157-7.855469-.710937-10.582032-3.117188-2.726562-7.855469-2.40625-10.582032.710938-2.929687 3.351562-7.332031 5.273438-12.070312 5.273438-4.742188 0-9.140625-1.921876-12.070312-5.273438-2.726563-3.117188-7.464844-3.4375-10.582032-.710938-3.121094 2.726563-3.4375 7.464844-.710937 10.582032 5.777343 6.613281 14.292969 10.402344 23.363281 10.402344zm0 0"/><path d="m7.5 284.800781h497c4.140625 0 7.5-3.359375 7.5-7.5v-21.300781c0-42.023438-10.421875-83.71875-30.132812-120.574219-1.953126-3.652343-6.5-5.027343-10.152344-3.074219-3.652344 1.953126-5.027344 6.496094-3.074219 10.148438 18.550781 34.6875 28.359375 73.933594 28.359375 113.5v13.800781h-75c0-21.867187-1.015625-42.992187-7.703125-64.007812-7.503906-23.496094-20.25-44.976563-37.015625-63.035157-.101562-.105468-.199219-.21875-.296875-.324218l53.101563-53.101563c8.589843 8.980469 16.546874 18.695313 23.691406 28.941407 2.371094 3.398437 7.046875 4.230468 10.441406 1.859374 3.398438-2.367187 4.230469-7.042968 1.859375-10.441406-9.109375-13.058594-19.449219-25.101562-30.707031-36.351562-48.171875-47.292969-111.875-73.339844-179.371094-73.339844s-131.199219 26.046875-179.375 73.339844c-29.523438 28.957031-52.066406 65.320312-64.542969 104.773437-1.257812 3.945313.917969 8.167969 4.863281 9.425781 3.945313 1.257813 8.167969-.917968 9.425782-4.863281 11.078125-34.726562 30.238281-66.894531 55.542968-93.34375l53.105469 53.101563c-13.402343 14.242187-24.332031 30.855468-31.96875 48.867187-8.652343 20.402344-13.050781 42.546875-13.050781 64.699219v13.800781h-75v-13.800781c0-15.117188 1.425781-30.3125 4.242188-45.164062.773437-4.070313-1.902344-7.992188-5.972657-8.765626-4.066406-.773437-7.992187 1.902344-8.765625 5.972657-2.988281 15.769531-4.503906 31.90625-4.503906 47.957031v21.300781c0 4.140625 3.359375 7.5 7.5 7.5zm102.9375-69.171875c7.125-25.671875 21.265625-49.289062 40.371094-67.859375 28.371094-27.582031 65.730468-42.769531 105.191406-42.769531 39.042969 0 77.210938 15.570312 105.191406 42.769531 33.851563 32.902344 45.808594 76.074219 45.808594 122.03125h-91.648438c-2.511718-19.976562-14.90625-36.90625-32.117187-45.746093l-10.46875-87.871094c-1.011719-8.488282-8.21875-14.886719-16.765625-14.886719s-15.753906 6.398437-16.765625 14.886719l-10.464844 87.871094c-17.214843 8.835937-29.605469 25.769531-32.113281 45.746093h-91.65625c0-18.425781.472656-36.28125 5.4375-54.171875zm134.089844 2.9375 9.601562-80.605468c.113282-.949219.917969-1.664063 1.871094-1.664063.957031 0 1.757812.714844 1.871094 1.664063l9.605468 80.605468c-.671874-.128906-1.34375-.234375-2.015624-.339844-5.3125-.84375-10.769532-1.03125-16.113282-.378906-1.617187.175782-3.226562.410156-4.820312.71875zm-4.28125 16.757813c9.507812-3.582031 20.234375-3.777344 29.871094-.574219 15.523437 5.164062 27.308593 18.59375 30.089843 35.050781h-88.410156c2.679687-15.871093 13.734375-28.933593 28.449219-34.476562zm15.753906-220.324219c61.015625 0 118.734375 22.605469 163.382812 63.820312l-53.152343 53.152344c-.09375-.085937-.191407-.167968-.289063-.253906-30.171875-26.753906-69.605468-41.71875-109.941406-41.71875-40.34375 0-80.074219 15.214844-110.230469 41.972656l-53.152343-53.152344c44.648437-41.214843 102.367187-63.820312 163.382812-63.820312zm0 0"/></svg>