<?xml version="1.0" encoding="iso-8859-1"?>
<!-- Generator: Adobe Illustrator 19.0.0, SVG Export Plug-In . SVG Version: 6.00 Build 0)  -->
<svg version="1.1" id="Capa_1" xmlns="http://www.w3.org/2000/svg" xmlns:xlink="http://www.w3.org/1999/xlink" x="0px" y="0px"
	 viewBox="0 0 511.995 511.995" style="enable-background:new 0 0 511.995 511.995;" xml:space="preserve">
<path style="fill:#EBBA16;" d="M281.765,247.039c0,19.187,17.634,36.821,36.821,36.821l2.647,2.647l181.986-181.986L398.901,0.194
	L216.906,182.188L281.765,247.039z"/>
<path style="fill:#E7ECED;" d="M503.218,511.995c-2.222,0-4.443-0.85-6.135-2.543l-26.034-26.034c-3.393-3.393-3.393-8.878,0-12.271
	s8.878-3.393,12.271,0l26.034,26.034c3.393,3.393,3.393,8.878,0,12.271C507.653,511.144,505.44,511.995,503.218,511.995z"/>
<g>
	<path style="fill:#28384C;" d="M50.185,155.946c-0.903,0-1.831-0.148-2.742-0.451c-4.547-1.519-7.003-6.43-5.484-10.978
		l12.271-36.821c1.51-4.539,6.422-7.012,10.978-5.484c4.547,1.519,7.003,6.43,5.484,10.978l-12.271,36.821
		C57.206,153.647,53.821,155.946,50.185,155.946z"/>
	<path style="fill:#28384C;" d="M129.962,235.714c-2.222,0-4.443-0.85-6.135-2.543l-79.768-79.768
		c-3.393-3.393-3.393-8.878,0-12.271c3.393-3.393,8.878-3.393,12.271,0l79.768,79.768c3.393,3.393,3.393,8.878,0,12.271
		C134.396,234.864,132.175,235.714,129.962,235.714z"/>
</g>
<path style="fill:#EBBA16;" d="M283.779,318.658c0-19.187-17.634-36.821-36.821-36.821l-64.859-64.859L0.096,398.999
	l104.318,104.318l182.012-182.012L283.779,318.658z"/>
<rect x="33.35" y="27.912" transform="matrix(-0.7071 0.7071 -0.7071 -0.7071 142.5888 57.5062)" style="fill:#7383BF;" width="52.069" height="60.744"/>
<rect x="138.199" y="41.647" transform="matrix(-0.7071 0.7071 -0.7071 -0.7071 416.6652 171.0422)" style="fill:#556080;" width="69.419" height="260.337"/>
<path style="fill:#7383BF;" d="M240.406,288.398l49.091-49.091c0,19.187,17.634,36.821,36.821,36.821l-49.091,49.091
	C277.227,306.032,259.593,288.398,240.406,288.398z"/>
<rect x="316.167" y="280.337" transform="matrix(-0.7071 0.7071 -0.7071 -0.7071 846.3023 348.9737)" style="fill:#556080;" width="69.419" height="138.849"/>
<polygon style="fill:#7383BF;" points="425.117,462.036 461.929,425.215 418.357,380.445 381.545,417.257 "/>
<polygon style="fill:#556080;" points="471.041,483.418 483.32,471.147 461.929,425.215 425.117,462.036 "/>
<rect x="132.091" y="139.647" transform="matrix(-0.7071 0.7071 -0.7071 -0.7071 401.9008 164.8909)" style="fill:#7383BF;" width="69.419" height="52.07"/>
<rect x="8.328" y="7.189" transform="matrix(-0.7071 0.7071 -0.7071 -0.7071 61.2015 23.7392)" style="fill:#556080;" width="34.712" height="34.712"/>
<g>
	<path style="fill:#F7DF9C;" d="M97.185,447.005l-10.101-10.101c-3.992-3.992-3.992-10.457,0-14.449l10.101-10.101
		c3.992-3.992,10.457-3.992,14.449,0l10.101,10.101c3.992,3.992,3.992,10.457,0,14.449l-10.101,10.101
		C107.642,450.988,101.177,450.988,97.185,447.005z"/>
	<path style="fill:#F7DF9C;" d="M59.15,408.093c1.692,1.692,3.914,2.543,6.135,2.543c2.222,0,4.443-0.85,6.135-2.543
		c3.393-3.384,3.393-8.878,0-12.271l-34.07-34.07l-12.27,12.263L59.15,408.093z"/>
	<path style="fill:#F7DF9C;" d="M71.42,371.273c1.692,1.692,3.914,2.543,6.135,2.543c2.222,0,4.443-0.85,6.135-2.543
		c3.393-3.393,3.393-8.886,0-12.271l-21.799-21.799L49.62,349.474L71.42,371.273z"/>
	<path style="fill:#F7DF9C;" d="M116.632,356.104c3.393-3.393,3.393-8.878,0-12.271l-30.685-30.685l0,0l-12.271,12.271l0,0
		l30.685,30.685c1.692,1.692,3.914,2.543,6.135,2.543C112.719,358.646,114.94,357.796,116.632,356.104z"/>
	<path style="fill:#F7DF9C;" d="M98.226,300.868l18.406,18.415c1.692,1.692,3.914,2.543,6.135,2.543c2.222,0,4.443-0.85,6.135-2.543
		c3.393-3.384,3.393-8.878,0-12.271l-18.406-18.415l0,0L98.226,300.868L98.226,300.868z"/>
	<path style="fill:#F7DF9C;" d="M122.768,276.327l30.685,30.677c1.692,1.692,3.914,2.543,6.135,2.543
		c2.222,0,4.443-0.85,6.135-2.543c3.393-3.393,3.393-8.886,0-12.271l-30.685-30.677l0,0L122.768,276.327L122.768,276.327z"/>
	<path style="fill:#F7DF9C;" d="M147.318,251.786l18.406,18.406c1.692,1.692,3.914,2.543,6.135,2.543s4.443-0.85,6.135-2.543
		c3.393-3.393,3.393-8.878,0-12.271l-18.406-18.406l0,0L147.318,251.786L147.318,251.786z"/>
	<path style="fill:#F7DF9C;" d="M368.215,30.879l30.677,30.677c1.692,1.692,3.914,2.543,6.135,2.543s4.443-0.85,6.135-2.543
		c3.393-3.393,3.393-8.878,0-12.271l-30.677-30.677L368.215,30.879z"/>
	<path style="fill:#F7DF9C;" d="M343.674,55.421l18.406,18.415c1.692,1.692,3.914,2.543,6.135,2.543s4.443-0.85,6.135-2.543
		c3.393-3.384,3.393-8.878,0-12.271L355.945,43.15l0,0L343.674,55.421L343.674,55.421z"/>
	<path style="fill:#F7DF9C;" d="M319.124,79.971l30.685,30.677c1.692,1.692,3.914,2.543,6.135,2.543c2.222,0,4.443-0.85,6.135-2.543
		c3.393-3.393,3.393-8.886,0-12.271L331.395,67.7l0,0L319.124,79.971L319.124,79.971z"/>
	<path style="fill:#F7DF9C;" d="M294.583,104.512l18.406,18.415c1.692,1.692,3.914,2.543,6.135,2.543
		c2.222,0,4.443-0.85,6.135-2.543c3.393-3.384,3.393-8.878,0-12.271l-18.406-18.415l0,0L294.583,104.512L294.583,104.512z"/>
	<path style="fill:#F7DF9C;" d="M270.042,129.062l30.685,30.685c1.692,1.692,3.914,2.543,6.135,2.543s4.443-0.85,6.135-2.543
		c3.393-3.393,3.393-8.878,0-12.271l-30.685-30.685l0,0L270.042,129.062L270.042,129.062z"/>
	<path style="fill:#F7DF9C;" d="M245.492,153.603l18.415,18.406c1.692,1.692,3.914,2.543,6.135,2.543s4.443-0.85,6.135-2.543
		c3.393-3.393,3.393-8.886,0-12.271l-18.415-18.406l0,0L245.492,153.603L245.492,153.603z"/>
</g>
<g>
</g>
<g>
</g>
<g>
</g>
<g>
</g>
<g>
</g>
<g>
</g>
<g>
</g>
<g>
</g>
<g>
</g>
<g>
</g>
<g>
</g>
<g>
</g>
<g>
</g>
<g>
</g>
<g>
</g>
</svg>
