<svg height="512pt" viewBox="-19 0 512 512" width="512pt" xmlns="http://www.w3.org/2000/svg"><path d="m29.742188 437.429688c5.121093 42.511718 41.273437 74.570312 84.097656 74.570312h247.304687c42.820313 0 78.972657-32.058594 84.09375-74.570312l28.414063-235.84375c6.15625-51.097657-9.894532-102.488282-44.039063-140.992188-34.148437-38.507812-83.25-60.59375-134.714843-60.59375h-114.816407c-41.632812 0-82.199219 14.515625-114.238281 40.871094-3.199219 2.632812-3.660156 7.359375-1.027344 10.558594 2.632813 3.199218 7.359375 3.65625 10.554688 1.023437 29.785156-24.5 65.996094-37.453125 104.710937-37.453125h114.816407c47.179687 0 92.1875 20.246094 123.488281 55.542969 31.300781 35.300781 46.019531 82.40625 40.375 129.246093l-28.414063 235.84375c-4.214844 34.984376-33.964844 61.367188-69.203125 61.367188h-247.304687c-35.238282 0-64.992188-26.382812-69.207032-61.367188l-28.414062-235.84375c-5.605469-46.511718 8.121094-91.703124 38.644531-127.246093 2.699219-3.140625 2.339844-7.878907-.800781-10.574219-3.144531-2.699219-7.878906-2.339844-10.578125.800781-16.078125 18.722657-27.953125 40.085938-35.296875 63.488281-7.640625 24.359376-9.949219 49.703126-6.863281 75.328126zm0 0"/><path d="m399.445312 357.703125c-.492187 4.113281 2.4375 7.847656 6.550782 8.34375 4.109375.496094 7.847656-2.4375 8.34375-6.550781 0 0 12.953125-107.515625 12.957031-107.539063 1.480469-12.292969-8.433594-23.457031-20.800781-23.457031 0 0-337.773438 0-338.011719 0-12.367187 0-22.277344 11.179688-20.800781 23.457031l21.769531 180.6875c2.703125 22.4375 21.785156 39.355469 44.382813 39.355469h247.308593c22.597657 0 41.679688-16.917969 44.382813-39.355469l5.238281-43.464843c.492187-4.113282-2.4375-7.847657-6.550781-8.34375-4.113282-.492188-7.847656 2.4375-8.34375 6.550781l-5.234375 43.460937c-1.800781 14.910156-14.476563 26.152344-29.492188 26.152344h-247.308593c-15.015626 0-27.691407-11.242188-29.488282-26.148438 0 0-21.769531-180.6875-21.769531-180.695312-.421875-3.515625 2.367187-6.65625 5.90625-6.65625h338.011719c3.515625 0 6.324218 3.183594 5.90625 6.664062zm0 0"/><path d="m149.484375 331.589844v14.570312c0 4.140625 3.355469 7.5 7.5 7.5 4.140625 0 7.5-3.359375 7.5-7.5v-14.570312c0-4.144532-3.359375-7.5-7.5-7.5-4.144531 0-7.5 3.355468-7.5 7.5zm0 0"/><path d="m310.496094 331.589844v14.570312c0 4.140625 3.359375 7.5 7.5 7.5 4.144531 0 7.5-3.359375 7.5-7.5v-14.570312c0-4.144532-3.355469-7.5-7.5-7.5-4.140625 0-7.5 3.355468-7.5 7.5zm0 0"/><path d="m251.714844 340.210938c-3.460938 3.957031-8.644532 6.226562-14.226563 6.226562-5.578125 0-10.761719-2.273438-14.222656-6.226562-2.726563-3.121094-7.460937-3.4375-10.582031-.714844-3.117188 2.726562-3.4375 7.464844-.710938 10.585937 6.308594 7.214844 15.609375 11.355469 25.515625 11.355469 9.910157 0 19.210938-4.140625 25.519531-11.355469 2.726563-3.121093 2.40625-7.855469-.710937-10.585937-3.117187-2.722656-7.859375-2.40625-10.582031.714844zm0 0"/><path d="m434.917969 177.183594c-.332031-15.9375-3.390625-31.589844-8.90625-46.304688-.011719-.027344-.019531-.054687-.03125-.082031-.003907-.011719-.007813-.019531-.011719-.03125-22.015625-53.585937-72.1875-90.765625-131.070312-90.765625 0 0-114.804688 0-114.816407 0-57.503906 0-110.847656 36.980469-131.066406 90.765625-.003906.011719-.011719.019531-.015625.03125-.011719.023437-.019531.054687-.027344.082031-5.519531 14.714844-8.578125 30.367188-8.90625 46.304688-.296875 14.238281 11.714844 26.21875 25.867188 26.21875h343.113281c14.222656 0 26.164063-11.953125 25.871094-26.21875zm-208.839844 11.21875 7.945313-65.988282c.003906-.035156.007812-.070312.011718-.105468.191406-1.773438 1.675782-3.109375 3.457032-3.109375s3.265624 1.335937 3.453124 3.109375c.003907.035156.007813.070312.011719.101562l7.949219 65.992188zm190.777344-3.3125c-2.003907 2.039062-4.796875 3.3125-7.808594 3.3125h-145.035156l-8.15625-67.734375c-1.027344-9.390625-8.914063-16.464844-18.363281-16.464844-9.453126 0-17.339844 7.074219-18.363282 16.460937l-8.160156 67.738282s-144.949219 0-145.03125 0c-5.9375 0-10.996094-4.910156-10.875-10.910156.238281-11.589844 2.097656-23.011719 5.441406-33.953126 0 0 30.171875 12.214844 30.175782 12.214844 3.785156 1.53125 8.226562-.347656 9.765624-4.140625 1.550782-3.835937-.300781-8.210937-4.140624-9.765625l-30.574219-12.375c5.183593-11.722656 12.171875-22.667968 20.792969-32.390625 4.179687-4.71875 8.695312-9.074219 13.476562-13.058593 0 0 18.722656 22.46875 18.730469 22.476562 2.554687 3.066406 7.378906 3.613281 10.5625.960938 3.183593-2.652344 3.613281-7.382813.960937-10.5625l-18.15625-21.789063c15.078125-9.765625 32.144532-16.203125 50.03125-18.804687 0 0 9.210938 28.449218 9.226563 28.503906 1.253906 3.875 5.582031 6.078125 9.445312 4.824218 3.941407-1.273437 6.101563-5.503906 4.824219-9.445312l-8.144531-25.152344c.867187-.019531 1.734375-.035156 2.601562-.035156h49.90625v27.5c0 4.140625 3.359375 7.5 7.5 7.5 4.144531 0 7.5-3.359375 7.5-7.5v-27.5h49.910157c.867187 0 1.734374.015625 2.601562.035156l-8.144531 25.15625c-1.277344 3.9375.882812 8.167969 4.824219 9.445313 3.824218 1.234375 8.269531-.90625 9.445312-4.828125l9.226562-28.5c17.886719 2.597656 34.957032 9.039062 50.035157 18.800781l-18.15625 21.789063c-2.652344 3.183593-2.222657 7.914062.960937 10.566406 3.144532 2.621094 7.941406 2.183594 10.5625-.960938l18.730469-22.480468c4.78125 3.988281 9.292969 8.339843 13.476563 13.058593 8.621093 9.722657 15.609374 20.667969 20.792968 32.394531l-30.574218 12.375c-3.839844 1.550782-5.695313 5.925782-4.140626 9.761719 1.53125 3.78125 5.996094 5.667969 9.765626 4.140625l30.175781-12.214844c3.339843 10.941407 5.199219 22.359376 5.441406 33.953126.058594 2.941406-1.136719 5.625-3.066406 7.597656zm0 0"/></svg>